<?xml version="1.0" standalone="no"?>
<!DOCTYPE svg PUBLIC "-//W3C//DTD SVG 20010904//EN"
 "http://www.w3.org/TR/2001/REC-SVG-20010904/DTD/svg10.dtd">
<svg version="1.0" xmlns="http://www.w3.org/2000/svg"
 width="1000.000000pt" height="1000.000000pt" viewBox="0 0 1000.000000 1000.000000"
 preserveAspectRatio="xMidYMid meet">
<metadata>
Created by potrace 1.11, written by Peter Selinger 2001-2013
</metadata>
<g transform="translate(0.000000,1000.000000) scale(0.100000,-0.100000)"
fill="#000000" stroke="none">
<path d="M5950 9935 c-102 -35 -185 -65 -185 -65 0 -1 -8 -3 -18 -5 -10 -2
-26 -7 -35 -11 -9 -4 -20 -8 -24 -9 -5 -2 -10 -4 -13 -5 -3 -1 -9 -4 -15 -5
-5 -1 -11 -3 -12 -5 -2 -1 -11 -3 -21 -5 -10 -2 -26 -7 -35 -11 -9 -4 -20 -8
-24 -9 -5 -2 -10 -4 -13 -5 -3 -1 -8 -3 -12 -4 -18 -4 -969 -323 -993 -333 -8
-3 -21 -7 -28 -9 -8 -1 -21 -6 -30 -10 -9 -4 -22 -8 -28 -9 -6 -2 -38 -13 -72
-25 -48 -18 -63 -28 -71 -50 -5 -16 -8 -30 -6 -32 2 -2 6 -30 10 -63 3 -33 8
-76 10 -95 12 -89 15 -109 20 -160 3 -30 7 -68 9 -85 3 -16 7 -55 10 -85 3
-30 8 -66 11 -79 2 -13 7 -51 10 -85 2 -33 7 -70 9 -81 2 -12 7 -52 10 -90 4
-39 9 -77 11 -85 2 -8 6 -46 10 -83 3 -37 8 -76 10 -85 1 -9 6 -48 10 -85 3
-37 8 -76 10 -85 2 -10 6 -47 9 -83 4 -36 9 -76 11 -90 2 -13 7 -51 10 -84 3
-33 8 -73 10 -90 16 -120 20 -156 29 -240 8 -73 15 -137 23 -190 3 -22 6 -51
8 -65 11 -105 18 -168 21 -183 2 -10 6 -45 9 -78 4 -33 8 -69 10 -80 2 -10 -1
-19 -7 -19 -9 0 -279 -96 -328 -117 -8 -3 -17 -7 -20 -8 -20 -5 -117 -39 -125
-44 -5 -3 -14 -6 -20 -7 -5 -1 -71 -25 -147 -53 -75 -28 -139 -51 -143 -51 -4
0 -21 -6 -38 -14 -18 -8 -113 -43 -212 -79 -99 -36 -193 -71 -210 -78 -16 -7
-35 -13 -42 -15 -7 -1 -37 -14 -68 -29 -78 -37 -147 -109 -175 -182 -20 -52
-21 -69 -15 -177 3 -66 7 -122 9 -125 2 -3 7 -37 10 -76 4 -38 9 -90 11 -115
5 -53 16 -153 21 -195 2 -16 6 -55 9 -85 3 -30 7 -71 10 -90 3 -19 7 -60 9
-90 3 -30 7 -68 10 -85 2 -16 7 -60 11 -97 3 -37 8 -77 10 -90 3 -12 7 -50 10
-83 3 -33 8 -76 10 -95 2 -19 7 -57 10 -85 6 -46 9 -76 20 -175 6 -62 15 -134
22 -170 3 -19 7 -48 8 -65 6 -52 16 -139 20 -165 2 -14 6 -46 9 -72 3 -26 8
-62 10 -80 3 -18 8 -55 11 -81 4 -27 8 -57 10 -67 2 -11 6 -43 9 -72 4 -29 8
-64 11 -78 3 -14 7 -47 10 -75 3 -27 8 -57 10 -65 2 -8 7 -38 10 -66 3 -28 8
-61 10 -75 3 -13 8 -44 11 -69 3 -25 8 -54 10 -65 2 -11 7 -38 10 -60 11 -84
35 -229 40 -237 4 -6 -114 -68 -130 -68 -2 0 -42 -17 -88 -39 -160 -74 -219
-101 -223 -101 -2 0 -51 -23 -109 -50 -58 -27 -108 -50 -111 -50 -3 0 -33 -13
-67 -29 -35 -16 -108 -50 -163 -74 -120 -54 -215 -97 -313 -143 -40 -19 -75
-34 -77 -34 -3 0 -33 -13 -67 -29 -35 -16 -154 -70 -264 -120 -191 -85 -260
-116 -399 -180 -33 -15 -95 -43 -137 -62 -43 -19 -78 -40 -78 -46 0 -7 11 -42
25 -78 13 -36 22 -65 19 -65 -2 0 9 -27 26 -60 36 -70 88 -124 184 -189 39
-27 121 -83 181 -125 61 -42 118 -82 129 -89 10 -6 37 -26 60 -43 22 -17 77
-55 121 -84 44 -30 85 -58 90 -62 36 -30 688 -478 696 -478 6 0 85 38 177 85
92 47 173 85 179 85 6 0 13 3 15 8 2 4 203 107 448 230 245 122 595 298 778
391 182 92 332 165 332 162 0 -3 4 -1 8 4 4 6 51 32 105 58 l98 48 52 -32 c29
-18 91 -59 139 -91 48 -32 90 -58 93 -58 4 0 26 -13 50 -30 24 -16 46 -30 50
-30 3 0 11 -5 18 -10 14 -12 227 -150 231 -150 2 0 54 -34 117 -75 119 -79
252 -149 304 -161 17 -4 73 -8 127 -10 126 -4 203 17 362 100 66 35 193 100
281 146 249 128 389 202 401 211 15 12 67 -137 80 -231 3 -19 9 -57 13 -83 9
-51 7 -228 -4 -306 -3 -25 -8 -62 -10 -81 -2 -19 -7 -53 -10 -75 -4 -22 -8
-51 -10 -65 -6 -48 -17 -115 -22 -135 -2 -11 -6 -33 -8 -50 -5 -39 -14 -91
-25 -139 -21 -93 7 -194 74 -269 124 -140 138 -147 205 -106 18 11 81 45 140
76 58 31 111 59 116 63 6 5 55 32 110 61 55 28 117 63 137 76 21 12 40 23 43
23 5 0 424 226 525 283 30 18 57 32 60 32 7 1 139 74 182 101 21 13 44 24 52
24 8 0 17 4 21 9 3 5 31 22 62 38 96 47 181 151 196 240 3 15 28 168 57 338
28 171 53 321 56 335 28 148 22 340 -16 489 -46 181 -139 347 -276 490 l-61
64 13 61 c7 34 15 75 17 91 3 17 10 62 16 100 7 39 14 81 17 95 5 26 9 51 19
123 3 23 8 49 10 57 2 8 7 39 10 69 3 30 7 57 9 60 2 3 7 31 10 62 4 31 8 66
10 76 3 11 7 44 11 74 4 30 8 56 10 59 2 3 6 32 9 65 4 33 9 69 11 80 2 11 7
43 10 70 13 102 18 138 30 205 2 14 7 52 10 85 3 33 7 67 10 75 2 8 7 40 10
70 3 30 8 66 10 80 2 14 6 48 9 75 3 28 8 66 11 85 2 19 7 58 10 85 3 28 8 61
10 75 2 14 7 50 10 80 3 30 8 66 10 80 2 14 6 45 9 70 3 25 8 68 11 95 3 28 8
66 10 85 3 19 7 58 10 85 10 90 15 130 20 160 3 17 7 59 10 95 4 36 8 79 10
95 2 17 7 55 10 85 3 30 10 84 14 120 23 171 -11 293 -106 387 -73 70 -80 75
-251 148 -86 37 -179 78 -207 90 -27 12 -131 57 -230 99 -99 43 -189 81 -200
86 -11 5 -47 21 -80 36 -133 59 -381 166 -390 168 -33 7 -54 28 -49 49 2 12 7
47 9 77 3 30 8 71 10 90 3 19 8 55 10 80 11 114 17 167 20 190 2 14 6 54 10
90 3 36 8 81 10 100 2 19 7 60 10 90 3 30 8 71 10 91 2 20 7 60 10 90 3 30 7
68 10 84 2 17 7 62 11 100 10 109 13 136 20 195 4 30 8 69 9 85 3 35 14 135
20 185 2 19 7 60 10 90 3 30 7 71 10 90 2 19 7 62 10 95 3 33 7 71 10 85 2 14
7 57 10 95 3 39 8 84 10 100 3 17 7 55 10 85 13 122 23 220 29 275 6 54 -9 71
-90 100 -38 13 -134 47 -214 75 -80 29 -149 53 -155 54 -5 1 -14 4 -20 7 -5 4
-35 14 -65 23 -30 10 -64 21 -75 26 -11 5 -137 50 -280 100 -143 50 -296 104
-340 120 -44 15 -109 38 -145 50 -36 12 -78 28 -95 35 -24 10 -156 56 -175 60
-3 1 -18 8 -35 15 -16 7 -55 14 -85 16 -47 3 -83 -6 -240 -61z m-1680 -5038
c14 -8 43 -24 65 -37 40 -23 299 -168 410 -230 33 -18 74 -41 90 -50 231 -131
355 -200 359 -200 19 0 133 -91 151 -120 42 -67 43 -75 49 -259 l4 -143 -116
-55 c-144 -67 -174 -81 -287 -131 -49 -22 -119 -54 -155 -70 -73 -34 -343
-155 -407 -183 l-43 -18 -1 22 c0 12 -2 36 -4 52 -2 17 -6 59 -9 95 -3 36 -8
81 -11 100 -7 57 -14 120 -20 195 -4 39 -8 81 -10 95 -2 14 -7 54 -10 90 -3
36 -8 76 -10 90 -2 14 -7 59 -10 100 -3 41 -8 86 -10 100 -2 14 -7 54 -10 90
-3 36 -7 75 -9 86 -2 11 -7 56 -11 100 -3 43 -8 90 -10 104 -2 14 -7 59 -10
100 -4 41 -9 78 -12 83 -7 11 9 8 37 -6z m3946 -65 c-2 -10 -7 -44 -11 -77 -3
-33 -8 -71 -10 -85 -9 -68 -16 -119 -20 -162 -3 -26 -7 -66 -10 -90 -3 -24 -8
-63 -11 -88 -3 -25 -7 -56 -9 -70 -2 -14 -6 -50 -10 -80 -3 -30 -8 -71 -10
-90 -2 -19 -7 -60 -11 -90 -3 -30 -7 -64 -9 -75 -1 -11 -6 -47 -10 -80 -4 -33
-9 -73 -11 -90 -2 -16 -7 -59 -10 -95 -3 -36 -7 -66 -8 -67 0 -1 -64 26 -141
59 -132 58 -145 61 -220 62 -67 0 -90 -4 -138 -27 -60 -27 -132 -78 -155 -109
-12 -16 -15 -16 -50 4 -20 11 -64 36 -97 53 -172 93 -473 257 -495 269 -30 18
-33 53 -12 141 19 77 71 155 132 200 26 19 50 35 53 35 3 0 56 24 119 53 62
30 131 62 153 71 22 10 60 28 85 39 25 12 47 22 50 23 6 1 72 30 151 67 30 14
77 35 104 47 28 13 83 38 123 56 41 19 75 34 77 34 2 0 41 18 87 39 46 22 130
60 188 86 58 25 109 50 114 55 13 13 28 1 22 -18z"/>
<path d="M3900 9188 c-30 -11 -58 -25 -62 -31 -8 -14 11 -39 23 -31 5 3 21 8
36 10 15 3 31 8 37 12 6 3 17 7 25 9 21 3 44 30 37 42 -10 15 -32 13 -96 -11z"/>
<path d="M3350 9008 c-63 -21 -118 -42 -122 -46 -5 -5 -6 -16 -3 -25 8 -20 23
-17 160 30 88 31 110 42 110 57 0 29 -19 26 -145 -16z"/>
<path d="M2740 8804 c-80 -26 -126 -47 -128 -57 -5 -23 11 -27 54 -15 21 7 42
13 47 14 4 1 9 3 12 4 3 1 10 4 15 5 6 1 11 3 13 5 1 1 10 3 19 5 39 7 107 38
112 50 12 33 -23 30 -144 -11z"/>
<path d="M2115 8599 c-106 -36 -139 -60 -101 -75 15 -6 230 61 253 78 18 14 4
38 -21 36 -11 -1 -71 -19 -131 -39z"/>
<path d="M1525 8404 c-148 -51 -148 -50 -135 -74 10 -19 13 -19 46 -5 19 8 38
14 42 13 4 -1 17 3 29 10 12 6 30 14 40 16 87 18 119 35 110 61 -8 20 -16 19
-132 -21z"/>
<path d="M3103 8368 c-6 -7 -13 -20 -17 -28 -3 -8 -14 -27 -24 -42 -83 -129
-182 -304 -178 -315 5 -12 18 -10 76 14 43 17 48 14 54 -40 4 -28 9 -68 12
-87 2 -19 6 -53 9 -75 2 -22 6 -54 9 -70 2 -17 7 -52 11 -80 7 -58 20 -76 49
-71 21 5 158 50 186 63 19 8 27 10 43 12 25 2 35 35 26 91 -5 30 -11 75 -14
100 -3 25 -7 61 -10 80 -3 19 -7 51 -9 70 -3 19 -7 56 -11 81 l-6 46 53 19
c31 11 53 25 53 34 0 8 -16 26 -36 40 -20 14 -83 58 -139 98 -104 74 -120 81
-137 60z"/>
<path d="M901 8199 c-119 -40 -140 -54 -116 -78 11 -12 17 -12 29 -1 9 7 16 9
16 6 0 -4 9 -2 21 4 11 7 31 14 44 16 13 2 52 14 87 27 47 17 63 27 63 41 0
28 -19 26 -144 -15z"/>
<path d="M365 8022 c-22 -8 -47 -17 -55 -20 -8 -3 -19 -6 -25 -6 -11 -1 -11
-13 -1 -86 10 -67 16 -81 34 -78 19 4 24 53 11 101 -4 15 -4 27 2 27 5 0 11 0
14 0 3 0 19 7 35 15 17 9 30 13 30 9 0 -4 7 -1 15 6 37 31 -4 53 -60 32z"/>
<path d="M4386 7623 c-4 -4 -12 -8 -19 -9 -10 -2 -176 -64 -217 -81 -8 -3 -17
-7 -20 -8 -5 -2 -16 -6 -55 -21 -11 -4 -22 -8 -25 -9 -19 -4 -91 -31 -120 -43
-19 -9 -41 -17 -48 -18 -12 -2 -148 -53 -227 -85 -16 -7 -32 -13 -35 -14 -3
-1 -12 -5 -20 -8 -14 -6 -78 -29 -185 -67 -27 -10 -63 -24 -80 -31 -16 -7 -32
-13 -35 -14 -3 -1 -12 -4 -20 -8 -42 -16 -166 -62 -170 -63 -3 0 -18 -6 -35
-13 -16 -7 -37 -14 -45 -16 -17 -4 -81 -27 -125 -46 -16 -6 -35 -13 -40 -14
-6 -2 -33 -12 -60 -23 -62 -25 -87 -34 -100 -37 -6 -2 -33 -12 -60 -23 -59
-24 -86 -34 -100 -38 -5 -1 -23 -8 -40 -15 -16 -6 -34 -13 -40 -15 -5 -1 -23
-8 -40 -15 -16 -6 -37 -13 -45 -15 -9 -2 -34 -11 -55 -20 -22 -10 -42 -18 -45
-19 -3 0 -15 -6 -27 -13 -13 -7 -23 -10 -23 -7 0 3 -16 -2 -37 -10 -20 -8 -37
-14 -38 -13 -2 2 -5 26 -9 53 -3 28 -8 61 -11 75 -2 13 -6 39 -7 58 -1 19 -8
36 -15 39 -13 5 -171 -44 -187 -59 -6 -4 -18 -8 -28 -8 -16 0 -25 -24 -18 -55
5 -26 20 -114 25 -150 3 -22 10 -44 14 -48 10 -10 81 12 81 26 0 4 5 5 10 2 5
-3 16 -3 23 2 16 10 111 42 114 39 2 -1 5 -23 8 -47 6 -53 13 -111 21 -159 3
-19 7 -48 9 -65 3 -16 7 -48 10 -70 3 -22 8 -60 10 -85 5 -40 9 -71 20 -145 2
-11 6 -40 9 -65 3 -25 8 -56 11 -70 3 -14 7 -43 10 -65 2 -22 7 -59 10 -82 5
-41 4 -43 -35 -63 -96 -49 -170 -131 -231 -256 -76 -156 -113 -186 -236 -187
-40 0 -75 2 -77 4 -2 2 -7 28 -10 58 -4 29 -11 85 -17 125 -5 39 -12 86 -14
105 -2 18 -7 51 -10 72 -3 22 -7 58 -10 82 -5 39 -12 89 -20 147 -2 14 -6 45
-10 70 -16 130 -20 137 -92 181 -21 13 -44 29 -51 36 -26 25 -82 12 -279 -61
-109 -41 -290 -109 -403 -150 -113 -42 -214 -80 -225 -85 -11 -6 -60 -24 -110
-41 -49 -18 -103 -38 -120 -45 -16 -7 -82 -32 -146 -55 -133 -47 -163 -71
-163 -128 0 -35 10 -119 19 -152 2 -8 6 -37 10 -65 5 -45 13 -95 31 -195 3
-19 7 -44 9 -55 10 -75 16 -113 20 -135 3 -14 7 -38 9 -55 3 -16 12 -75 21
-130 9 -55 18 -113 21 -130 2 -16 9 -55 14 -85 5 -30 12 -73 15 -95 5 -36 11
-72 20 -130 2 -11 16 -92 30 -180 14 -88 28 -172 30 -186 3 -15 7 -47 10 -70
5 -37 16 -105 41 -249 13 -81 19 -89 108 -145 66 -42 97 -43 176 -7 25 12 104
44 177 71 221 85 637 250 655 261 10 5 27 10 38 10 11 0 20 5 20 10 0 6 6 10
13 10 11 0 149 52 212 80 11 4 38 16 60 25 42 18 76 54 77 83 1 23 -20 199
-37 302 -2 14 -6 50 -10 80 -3 30 -10 80 -15 110 -5 30 -12 78 -15 105 -9 82
-16 139 -20 161 -4 18 1 23 28 28 19 3 58 27 87 52 95 81 129 84 195 15 81
-85 159 -116 281 -113 41 1 61 -3 61 -11 0 -7 3 -30 7 -52 3 -22 8 -56 10 -75
5 -39 14 -107 21 -160 2 -19 6 -46 9 -60 2 -14 7 -47 10 -75 7 -55 14 -112 22
-165 3 -19 7 -51 9 -70 3 -19 7 -51 10 -70 5 -36 13 -88 21 -150 3 -19 7 -53
9 -75 2 -22 4 -40 5 -40 1 0 3 -9 4 -20 15 -103 19 -135 21 -165 2 -19 4 -35
5 -35 1 0 3 -18 6 -40 2 -22 7 -56 10 -75 4 -19 8 -46 10 -60 3 -29 11 -90 20
-152 4 -24 8 -59 9 -78 2 -19 4 -35 5 -35 3 0 19 -120 25 -185 2 -19 4 -35 5
-35 1 0 3 -9 4 -20 8 -56 18 -133 20 -155 6 -55 5 -53 21 -40 8 7 12 17 8 23
-3 5 -7 20 -8 31 -2 12 -6 44 -9 71 -4 28 -9 70 -12 95 -3 25 -7 56 -9 70 -8
46 -14 84 -19 130 -3 25 -8 54 -10 65 -2 11 -7 49 -11 85 -4 36 -9 74 -11 85
-2 11 -6 38 -9 60 -3 22 -7 51 -9 65 -3 14 -7 48 -10 75 -3 28 -8 61 -10 75
-3 14 -7 48 -11 75 -11 87 -14 109 -21 160 -4 28 -8 61 -10 75 -3 29 -10 82
-18 125 -2 17 -7 50 -10 75 -3 25 -8 65 -12 90 -3 25 -7 61 -9 80 -2 19 -6 46
-9 60 -3 14 -7 43 -10 65 -3 22 -7 56 -10 75 -6 33 -9 58 -21 160 -5 48 -13
102 -17 121 -2 7 28 28 66 48 222 113 342 404 266 641 -43 133 -144 233 -260
257 -41 9 -123 10 -160 2 -19 -5 -36 -7 -37 -5 -2 1 -5 20 -8 42 -3 21 -7 55
-10 74 -2 19 -10 69 -16 110 -12 79 -14 93 -23 180 -4 30 -8 65 -11 77 -3 12
-8 44 -10 70 -3 27 -7 59 -9 73 -2 14 -7 48 -11 75 -3 28 -8 61 -11 75 -2 14
-6 44 -10 67 l-5 41 58 22 c32 12 100 37 151 56 51 19 106 41 122 49 17 9 30
14 30 11 0 -2 35 9 78 26 42 16 124 47 182 68 58 21 119 44 135 51 17 7 32 13
35 14 3 1 12 5 20 8 8 3 47 17 85 31 39 13 106 38 150 55 44 16 118 44 165 62
47 17 119 44 160 59 41 16 89 34 105 41 17 7 33 13 38 14 4 2 8 3 10 5 1 1 9
3 17 5 8 2 29 9 45 16 17 7 32 13 35 14 3 1 13 5 23 8 40 16 53 20 62 23 6 1
24 8 40 15 17 7 32 13 35 14 3 1 13 5 23 8 9 4 25 10 35 14 9 3 19 7 22 8 17
4 90 30 120 43 19 8 35 13 35 12 0 -1 26 9 58 23 31 14 57 24 57 21 0 -3 10 1
23 8 12 6 31 14 42 15 25 5 50 29 37 37 -5 3 -12 2 -16 -1z"/>
<path d="M361 7541 c-9 -6 -11 -20 -6 -52 3 -24 9 -63 11 -85 9 -74 19 -99 40
-99 24 0 24 16 -1 165 -10 55 -12 61 -21 70 -5 5 -15 5 -23 1z"/>
<path d="M439 6998 c-1 -7 -1 -17 0 -21 1 -4 4 -24 6 -45 3 -20 8 -48 10 -62
3 -14 7 -41 10 -60 4 -19 11 -38 18 -42 17 -10 39 21 31 45 -3 10 -7 29 -9 40
-5 34 -15 100 -18 117 -4 24 -17 40 -33 40 -8 0 -15 -6 -15 -12z"/>
<path d="M531 6471 c-7 -5 -11 -13 -8 -17 4 -8 19 -93 20 -121 0 -15 25 -25
39 -17 10 6 1 103 -13 142 -9 24 -16 26 -38 13z"/>
<path d="M2070 4760 c0 -6 -8 -10 -17 -8 -12 2 -18 -3 -18 -17 0 -13 8 -21 23
-23 27 -4 29 -22 2 -22 -28 0 -25 -29 5 -40 14 -5 25 -16 25 -25 0 -8 9 -15
20 -15 13 0 17 5 14 14 -7 19 19 15 40 -7 20 -20 37 -22 34 -4 -2 7 6 11 19 9
17 -2 20 1 16 18 -3 11 -13 20 -23 20 -10 0 -21 7 -24 16 -4 11 -1 14 14 12
10 -2 19 0 20 5 1 28 -1 37 -9 32 -6 -3 -21 7 -35 22 -22 23 -26 25 -32 10 -8
-21 -33 -22 -40 -2 -7 17 -34 21 -34 5z m80 -75 c0 -13 -4 -14 -20 -5 -11 6
-20 13 -20 15 0 3 9 5 20 5 11 0 20 -7 20 -15z"/>
<path d="M2070 4561 c-16 -31 -12 -58 13 -85 21 -24 35 -30 68 -27 19 1 41 45
33 66 -4 10 0 15 10 15 9 0 17 -6 17 -12 1 -7 2 -17 4 -23 1 -5 3 -17 3 -27 1
-9 9 -15 20 -14 17 3 18 11 7 82 -5 31 -7 32 -53 30 -46 -1 -47 -2 -45 -30 3
-38 -14 -61 -33 -45 -16 13 -18 41 -4 55 6 6 3 14 -10 22 -16 10 -21 9 -30 -7z"/>
<path d="M2123 4410 c-19 -8 -39 -32 -42 -53 -2 -11 28 -67 37 -68 4 0 19 -3
34 -5 38 -6 61 20 53 62 -5 28 -3 33 10 28 17 -7 30 -47 21 -62 -3 -6 2 -13
11 -16 29 -11 36 18 18 75 -12 37 -92 59 -142 39z m47 -66 c0 -17 -6 -24 -19
-24 -21 0 -33 22 -25 44 9 23 44 7 44 -20z"/>
<path d="M2105 4216 c11 -57 13 -71 14 -78 4 -33 73 -50 89 -22 6 11 11 13 16
5 11 -17 54 -13 64 7 9 17 5 102 -5 112 -2 3 -45 5 -94 6 l-89 1 5 -31z m83
-35 c4 -27 -13 -50 -27 -35 -4 5 -11 21 -14 35 -6 22 -3 25 16 24 15 -1 23 -9
25 -24z m72 2 c0 -27 -19 -41 -31 -22 -15 24 -10 45 11 45 14 0 20 -7 20 -23z"/>
<path d="M2173 4060 c-45 -27 -49 -96 -8 -136 26 -26 38 -4 20 39 -13 32 -13
37 1 51 21 22 60 20 84 -4 22 -22 24 -33 10 -59 -7 -14 -5 -23 9 -35 17 -16
19 -15 31 13 16 39 5 82 -28 114 -37 35 -80 41 -119 17z"/>
<path d="M2173 3872 c-13 -2 -20 -8 -17 -16 5 -14 11 -55 13 -93 1 -16 7 -23
21 -23 19 0 20 4 14 51 -7 50 -6 51 15 40 18 -10 27 -40 22 -73 0 -5 8 -8 19
-8 19 0 20 4 15 40 -5 36 -4 40 15 40 14 0 20 -7 21 -25 1 -14 3 -29 4 -35 1
-5 3 -14 4 -20 0 -5 9 -10 19 -10 17 0 18 5 10 62 -4 34 -10 63 -12 66 -5 5
-134 8 -163 4z"/>
<path d="M2326 3713 c-2 -3 -2 -11 1 -19 4 -10 -10 -13 -67 -11 -55 2 -73 0
-78 -11 -8 -23 15 -29 104 -31 l85 -2 -4 37 c-4 34 -25 53 -41 37z"/>
<path d="M1005 3528 c10 -67 12 -82 14 -100 1 -18 35 -25 45 -10 3 5 0 40 -7
78 -11 60 -16 69 -36 72 -22 3 -23 1 -16 -40z"/>
<path d="M1093 3072 c-11 -7 -10 -28 1 -87 3 -16 8 -50 11 -75 9 -78 20 -105
41 -105 10 0 19 7 19 15 -1 14 -16 119 -20 130 -1 3 -5 28 -9 57 -8 54 -23 77
-43 65z"/>
<path d="M1191 2460 c-17 -10 2 -139 21 -151 20 -13 33 -4 31 22 -8 113 -22
148 -52 129z"/>
</g>
</svg>
